<svg width="24" height="25" viewBox="0 0 24 25" fill="none" xmlns="http://www.w3.org/2000/svg">
<path fill-rule="evenodd" clip-rule="evenodd" d="M21 10.4503V18.2668C21 20.4943 19.2091 22.3 17 22.3H7C4.79086 22.3 3 20.4943 3 18.2668V10.4503C3 9.23936 3.53964 8.09249 4.46986 7.32651L9.46986 3.20934C10.9423 1.99687 13.0577 1.99687 14.5301 3.20933L19.5301 7.32651C20.4604 8.09248 21 9.23936 21 10.4503ZM15.25 17.55V19.8C15.25 20.3523 14.8023 20.8 14.25 20.8H9.75C9.19772 20.8 8.75 20.3523 8.75 19.8V17.55C8.75 15.7551 10.2051 14.3 12 14.3C13.7949 14.3 15.25 15.7551 15.25 17.55Z" fill="white"/>
</svg>
