<svg width="44" height="45" viewBox="0 0 44 45" fill="none" xmlns="http://www.w3.org/2000/svg">
<path fill-rule="evenodd" clip-rule="evenodd" d="M20 13.3H21.1429C24.3782 13.3 27.0902 15.5873 27.8118 18.6643C27.9348 19.1891 28 19.7368 28 20.3C28 24.166 24.93 27.3 21.1429 27.3H16.9616H14.2857C13.0233 27.3 12 26.2553 12 24.9667V21.4667C12 16.9563 15.5817 13.3 20 13.3ZM21.4286 29.3H18.0581C19.2949 30.5372 20.9888 31.3 22.8571 31.3H27.0384H29.7143C30.9766 31.3 32 30.2553 32 28.9666V25.4666C32 23.3938 31.2435 21.5014 29.997 20.0613C29.999 20.1406 30 20.2202 30 20.3C30 25.2705 26.1624 29.3 21.4286 29.3Z" fill="white"/>
</svg>
