<svg width="44" height="45" viewBox="0 0 44 45" fill="none" xmlns="http://www.w3.org/2000/svg">
<path fill-rule="evenodd" clip-rule="evenodd" d="M16.2228 28.3002H27.7772C29.6056 28.3002 30.6492 26.4611 29.5522 25.1724C29.0666 24.6018 28.7673 23.9251 28.6867 23.2155L28.5227 21.77C28.3512 21.7898 28.1767 21.8 27.9999 21.8C25.5147 21.8 23.4999 19.7853 23.4999 17.3C23.4999 16.3291 23.8074 15.4301 24.3303 14.6949C24.3102 14.6878 24.2901 14.6808 24.2699 14.6739V14.5702C24.2699 13.3165 23.2537 12.3002 22 12.3002C20.7463 12.3002 19.7301 13.3165 19.7301 14.5702V14.6739C17.5877 15.4074 16.0016 17.1509 15.7605 19.2754L15.3133 23.2155C15.2327 23.9251 14.9334 24.6018 14.4478 25.1724C13.3508 26.4611 14.3944 28.3002 16.2228 28.3002ZM31 17.3C31 18.9568 29.6569 20.3 28 20.3C26.3431 20.3 25 18.9568 25 17.3C25 15.6431 26.3431 14.3 28 14.3C29.6569 14.3 31 15.6431 31 17.3ZM22 32.3002C23.3565 32.3002 24.5147 31.4994 24.9721 30.3718C24.9912 30.3247 25 30.2742 25 30.2235C25 29.9896 24.8104 29.8 24.5765 29.8H19.4235C19.1896 29.8 19 29.9896 19 30.2235C19 30.2742 19.0088 30.3247 19.0279 30.3718C19.4853 31.4994 20.6435 32.3002 22 32.3002Z" fill="white"/>
</svg>
